<svg width="44" height="44" viewBox="0 0 44 44" fill="none" xmlns="http://www.w3.org/2000/svg">
<path d="M18.4309 0.264473C13.516 1.16039 9.66888 3.18719 6.21676 6.72678C3.74468 9.23826 2.03324 12.0729 0.965426 15.3334C0.117021 17.9771 0 18.7702 0 22.0747C0 25.1884 0.102394 25.9227 0.906915 28.537C1.49202 30.4317 2.99867 33.3544 4.2859 35.0728C8.13298 40.1986 13.6622 43.2681 20.1569 43.8997C26.3444 44.5019 32.5173 42.3722 37.0665 38.0689C41.6157 33.7656 44 28.2433 44 22.0013C44 16.5818 42.2886 12.0141 38.617 7.62268C35.6769 4.09779 31.6689 1.67443 26.8125 0.470093C24.6476 -0.0586395 20.742 -0.161449 18.4309 0.264473ZM24.7939 2.36472C25.7008 2.52628 25.7593 2.57034 26.0226 3.12845C26.4176 3.92155 26.5053 5.7868 26.2128 6.91771C26.0811 7.38769 25.7739 8.13673 25.496 8.59203C24.7793 9.79637 22.8777 11.5294 21.4441 12.2932C20.7859 12.631 20.2154 12.8953 20.1862 12.866C20.1569 12.8366 20.4934 12.3813 20.9468 11.8672C21.8391 10.8098 22.629 9.28232 22.8777 8.07798C23.141 6.82958 23.0824 4.72934 22.746 3.48094C22.5851 2.87877 22.4535 2.35003 22.4535 2.2766C22.4535 2.11504 23.7114 2.1591 24.7939 2.36472ZM30.9082 4.3181C31.9176 4.90558 32.0199 5.18464 32.0785 7.38769C32.137 9.22357 32.1223 9.38513 31.7128 10.5748C31.1423 12.2197 30.1622 13.6591 28.7287 14.9956C27.1782 16.4202 26.0957 17.0665 22.7168 18.4911C19.2061 19.9745 18.2407 20.4592 17.0412 21.3551C14.8032 23 13.2088 25.1296 12.0093 28.023C11.0439 30.3729 10.6343 33.7216 11.117 35.3078C11.4973 36.5562 11.3218 36.5855 10.5027 35.3959C9.06915 33.3397 8.39628 31.2688 8.39628 28.8748C8.39628 26.9949 8.65957 25.7906 9.43484 24.1309C10.3564 22.1188 11.8777 20.3857 14.0426 18.8289C14.5691 18.4617 16.4707 17.3896 18.2553 16.4643C23.141 13.9381 23.8285 13.5416 24.984 12.6163C27.5293 10.5895 28.8896 7.68143 28.6995 4.72934C28.6556 4.06842 28.6556 3.49562 28.6995 3.45156C28.8019 3.33407 30.1184 3.8628 30.9082 4.3181ZM13.2527 4.92027C13.516 5.5665 13.633 7.28488 13.516 8.48922C13.3843 9.78168 13.004 10.8832 12.2434 12.1316C11.5412 13.2919 10.9269 13.9381 7.94282 16.5965C4.53457 19.6367 3.33511 21.267 2.77926 23.6169C2.64761 24.1456 2.50133 24.6743 2.45745 24.7918C2.28191 25.2178 2.15027 24.1456 2.13564 22.2069C2.10638 19.3576 2.63298 16.7433 3.39362 15.8327C3.5984 15.5831 4.59309 14.6431 5.60239 13.7619C8.64495 11.0595 9.30319 10.0167 9.55186 7.50519L9.65426 6.52116L11.1902 5.53712C12.0386 4.9937 12.8138 4.5384 12.9162 4.5384C13.0186 4.52372 13.1649 4.69996 13.2527 4.92027ZM34.6383 10.5454C34.8285 11.9554 34.6529 13.3947 34.1702 14.6872C33.4827 16.479 31.625 18.5352 29.5625 19.7836C29.0944 20.0626 27.2952 20.8557 25.5545 21.5607C20.625 23.5434 19.8205 23.9694 18.1383 25.5262C17.7434 25.8934 17.246 26.3193 17.0559 26.4809L16.7048 26.7746L17.0851 26.0402C18.2699 23.7491 20.3324 21.9572 23.3165 20.6795C25.7008 19.6367 27.9681 18.5205 28.6995 18.0211C31.742 15.9356 33.4681 13.2331 34.0824 9.60543C34.2287 8.75359 34.4481 9.13545 34.6383 10.5454ZM39.5678 12.9541C40.0505 13.9087 40.4747 14.8928 40.5186 15.1571C40.6503 15.8034 40.2407 17.6246 39.7141 18.7555C38.6316 21.0613 36.1303 23.4847 33.7753 24.5128C33.3803 24.6743 31.3324 25.4087 29.2407 26.1137C27.1343 26.8333 24.9987 27.6118 24.4867 27.8467C22.4388 28.7867 20.4056 30.7548 19.3231 32.855C18.2992 34.8378 17.9189 36.1449 17.9189 37.643C17.9189 38.348 17.8604 38.8767 17.7872 38.8327C17.7141 38.7886 17.4801 38.3039 17.2606 37.7605C16.9388 36.9527 16.8364 36.4534 16.7779 35.205C16.7487 34.309 16.7779 33.325 16.8803 32.8697C17.3045 30.9163 19.0452 28.2874 20.7274 27.0977C22.0293 26.1724 23.1117 25.6584 26.3152 24.4394C30.6303 22.7944 32.0931 21.9572 33.9947 20.0626C36.496 17.5805 37.5199 15.1718 37.5199 11.7204L37.5346 9.88449L38.1197 10.5454C38.4415 10.9126 39.0851 11.9847 39.5678 12.9541ZM41.762 21.0907C41.762 22.1629 41.3963 23.191 40.5771 24.41C39.1729 26.5249 37.5053 27.7146 33.746 29.2714C31.113 30.3729 29.4162 31.4451 28.3045 32.6935C27.4707 33.6481 26.6809 35.0728 26.3444 36.2331C26.0519 37.2318 26.0372 39.288 26.3298 40.3601C26.4468 40.8007 26.4907 41.212 26.4176 41.2854C26.2859 41.4176 24.1356 41.6819 23.0824 41.6819H22.3218L22 40.8301C21.7074 40.1104 21.6636 39.7139 21.6636 38.0102C21.6489 36.189 21.6928 35.9393 22.0585 35.014C22.8777 32.9432 24.238 31.2982 26.242 30.0057C27.4707 29.2126 27.8072 29.0658 31.2593 27.8027C34.258 26.7012 35.8524 25.9374 37.1543 25.0121C38.1051 24.3219 40.5918 21.8104 41.1769 20.9438C41.3816 20.6354 41.5864 20.3857 41.6596 20.3857C41.7181 20.3857 41.762 20.7088 41.762 21.0907Z" fill="#0F2450"/>
</svg>
