<svg width="24" height="24" viewBox="0 0 24 24" fill="none" xmlns="http://www.w3.org/2000/svg">
<path d="M4.45011 18.6849C5.52379 17.8883 6.69347 17.2592 7.95916 16.7975C9.22463 16.336 10.5716 16.1053 12 16.1053C13.4284 16.1053 14.7754 16.336 16.0408 16.7975C17.3065 17.2592 18.4762 17.8883 19.5499 18.6849C20.3352 17.8218 20.9574 16.8226 21.4165 15.6875C21.8757 14.5523 22.1053 13.3232 22.1053 12C22.1053 9.2 21.1211 6.81579 19.1526 4.84737C17.1842 2.87895 14.8 1.89474 12 1.89474C9.2 1.89474 6.81579 2.87895 4.84737 4.84737C2.87895 6.81579 1.89474 9.2 1.89474 12C1.89474 13.3232 2.12432 14.5523 2.58347 15.6875C3.04263 16.8226 3.66484 17.8218 4.45011 18.6849ZM12.0003 12.9474C10.8471 12.9474 9.87453 12.5516 9.08274 11.76C8.29074 10.9682 7.89474 9.99568 7.89474 8.84242C7.89474 7.68916 8.29053 6.71663 9.08211 5.92484C9.87389 5.13284 10.8464 4.73684 11.9997 4.73684C13.1529 4.73684 14.1255 5.13263 14.9173 5.92421C15.7093 6.716 16.1053 7.68853 16.1053 8.84179C16.1053 9.99505 15.7095 10.9676 14.9179 11.7594C14.1261 12.5514 13.1536 12.9474 12.0003 12.9474ZM12 24C10.3337 24 8.77053 23.6866 7.31053 23.0599C5.85053 22.4332 4.58053 21.5797 3.50053 20.4995C2.42032 19.4195 1.56684 18.1495 0.940105 16.6895C0.313369 15.2295 0 13.6663 0 12C0 10.3337 0.313369 8.77053 0.940105 7.31053C1.56684 5.85053 2.42032 4.58053 3.50053 3.50053C4.58053 2.42032 5.85053 1.56684 7.31053 0.940106C8.77053 0.313369 10.3337 0 12 0C13.6663 0 15.2295 0.313369 16.6895 0.940106C18.1495 1.56684 19.4195 2.42032 20.4995 3.50053C21.5797 4.58053 22.4332 5.85053 23.0599 7.31053C23.6866 8.77053 24 10.3337 24 12C24 13.6663 23.6866 15.2295 23.0599 16.6895C22.4332 18.1495 21.5797 19.4195 20.4995 20.4995C19.4195 21.5797 18.1495 22.4332 16.6895 23.0599C15.2295 23.6866 13.6663 24 12 24ZM12 22.1053C13.14 22.1053 14.2392 21.9219 15.2975 21.5552C16.3558 21.1882 17.2955 20.6753 18.1165 20.0163C17.2955 19.3814 16.368 18.8866 15.3341 18.5321C14.3 18.1774 13.1886 18 12 18C10.8114 18 9.698 18.1753 8.65989 18.5258C7.62179 18.8765 6.69632 19.3734 5.88347 20.0163C6.70453 20.6753 7.64421 21.1882 8.70253 21.5552C9.76084 21.9219 10.86 22.1053 12 22.1053ZM12 11.0526C12.6284 11.0526 13.1539 10.8413 13.5764 10.4185C13.9992 9.996 14.2105 9.47053 14.2105 8.8421C14.2105 8.21368 13.9992 7.68821 13.5764 7.26568C13.1539 6.84295 12.6284 6.63158 12 6.63158C11.3716 6.63158 10.8461 6.84295 10.4236 7.26568C10.0008 7.68821 9.78947 8.21368 9.78947 8.8421C9.78947 9.47053 10.0008 9.996 10.4236 10.4185C10.8461 10.8413 11.3716 11.0526 12 11.0526Z" fill="#0F2450"/>
</svg>
