<svg width="24" height="24" viewBox="0 0 24 24" fill="none" xmlns="http://www.w3.org/2000/svg">
<path d="M16.3869 17.7183L17.7183 16.3869L12.9474 11.616V5.68421H11.0526V12.3837L16.3869 17.7183ZM12.0022 24C10.3424 24 8.78232 23.6851 7.32189 23.0552C5.86147 22.4253 4.59116 21.5704 3.51095 20.4906C2.43074 19.4108 1.57547 18.1411 0.945158 16.6813C0.315052 15.2215 0 13.6618 0 12.0022C0 10.3424 0.314947 8.78232 0.944842 7.32189C1.57474 5.86147 2.42958 4.59116 3.50937 3.51095C4.58916 2.43074 5.85895 1.57547 7.31874 0.945158C8.77853 0.315052 10.3382 0 11.9978 0C13.6576 0 15.2177 0.314947 16.6781 0.944842C18.1385 1.57474 19.4088 2.42958 20.4891 3.50937C21.5693 4.58916 22.4245 5.85895 23.0548 7.31874C23.6849 8.77853 24 10.3382 24 11.9978C24 13.6576 23.6851 15.2177 23.0552 16.6781C22.4253 18.1385 21.5704 19.4088 20.4906 20.4891C19.4108 21.5693 18.1411 22.4245 16.6813 23.0548C15.2215 23.6849 13.6618 24 12.0022 24ZM12 22.1053C14.8 22.1053 17.1842 21.1211 19.1526 19.1526C21.1211 17.1842 22.1053 14.8 22.1053 12C22.1053 9.2 21.1211 6.81579 19.1526 4.84737C17.1842 2.87895 14.8 1.89474 12 1.89474C9.2 1.89474 6.81579 2.87895 4.84737 4.84737C2.87895 6.81579 1.89474 9.2 1.89474 12C1.89474 14.8 2.87895 17.1842 4.84737 19.1526C6.81579 21.1211 9.2 22.1053 12 22.1053Z" fill="#0F2450"/>
</svg>
