<svg width="24" height="24" viewBox="0 0 24 24" fill="none" xmlns="http://www.w3.org/2000/svg">
<path d="M10.0532 0.144258C7.37234 0.632936 5.27394 1.73847 3.39096 3.66915C2.04255 5.03905 1.10904 6.5852 0.526596 8.36366C0.0638298 9.80567 0 10.2383 0 12.0408C0 13.7391 0.0558511 14.1397 0.494681 15.5657C0.81383 16.5991 1.63564 18.1933 2.33777 19.1306C4.43617 21.9265 7.45213 23.6008 10.9947 23.9453C14.3697 24.2737 17.7367 23.1121 20.2181 20.7649C22.6995 18.4176 24 15.4054 24 12.0007C24 9.04461 23.0665 6.55315 21.0638 4.15783C19.4601 2.23516 17.2739 0.913326 14.625 0.256414C13.4441 -0.0319862 11.3138 -0.0880642 10.0532 0.144258ZM13.5239 1.28985C14.0186 1.37797 14.0505 1.402 14.1941 1.70643C14.4096 2.13903 14.4574 3.15644 14.2979 3.77329C14.2261 4.02965 14.0585 4.43822 13.9069 4.68656C13.516 5.34347 12.4787 6.28878 11.6968 6.70536C11.3378 6.88962 11.0266 7.03382 11.0106 7.0178C10.9947 7.00177 11.1782 6.75343 11.4255 6.47304C11.9122 5.89624 12.3431 5.06308 12.4787 4.40617C12.6223 3.72523 12.5904 2.57964 12.4069 1.89869C12.3191 1.57024 12.2473 1.28184 12.2473 1.24178C12.2473 1.15366 12.9335 1.17769 13.5239 1.28985ZM16.859 2.35533C17.4096 2.67577 17.4654 2.82798 17.4973 4.02965C17.5293 5.03104 17.5213 5.11916 17.2979 5.76806C16.9867 6.66531 16.4521 7.4504 15.6702 8.17941C14.8245 8.95649 14.234 9.30898 12.391 10.0861C10.4761 10.8952 9.94947 11.1595 9.29521 11.6482C8.07447 12.5455 7.20479 13.7071 6.55053 15.2853C6.02394 16.567 5.80053 18.3936 6.06383 19.2588C6.27128 19.9397 6.17553 19.9557 5.72872 19.3068C4.94681 18.1853 4.57979 17.0557 4.57979 15.7499C4.57979 14.7245 4.7234 14.0676 5.14628 13.1623C5.64894 12.0648 6.47872 11.1195 7.65957 10.2703C7.94681 10.07 8.98404 9.48522 9.95745 8.98052C12.6223 7.60261 12.9973 7.38631 13.6277 6.88161C15.016 5.77607 15.758 4.18987 15.6543 2.57964C15.6303 2.21914 15.6303 1.9067 15.6543 1.88267C15.7101 1.81858 16.4282 2.10698 16.859 2.35533ZM7.22872 2.68378C7.37234 3.03627 7.43617 3.97357 7.37234 4.63048C7.30053 5.33546 7.09309 5.93629 6.67819 6.61724C6.29521 7.25012 5.96011 7.60261 4.33245 9.05262C2.4734 10.7109 1.81915 11.6002 1.51596 12.8819C1.44415 13.1703 1.36436 13.4587 1.34043 13.5228C1.24468 13.7551 1.17287 13.1703 1.16489 12.1129C1.14894 10.5587 1.43617 9.13273 1.85106 8.63604C1.96277 8.49985 2.50532 7.98714 3.05585 7.50647C4.71543 6.03243 5.07447 5.46364 5.21011 4.09374L5.26596 3.55699L6.10372 3.02025C6.56649 2.72384 6.98936 2.47549 7.04521 2.47549C7.10106 2.46748 7.18085 2.56362 7.22872 2.68378ZM18.8936 5.75204C18.9973 6.52111 18.9016 7.3062 18.6383 8.01118C18.2633 8.98853 17.25 10.1101 16.125 10.791C15.8697 10.9432 14.8883 11.3758 13.9388 11.7604C11.25 12.8419 10.8112 13.0742 9.89362 13.9234C9.67819 14.1237 9.40691 14.356 9.30319 14.4441L9.1117 14.6043L9.31915 14.2038C9.96543 12.954 11.0904 11.9767 12.7181 11.2797C14.0186 10.7109 15.2553 10.1021 15.6543 9.8297C17.3138 8.69212 18.2553 7.21807 18.5904 5.23933C18.6702 4.77468 18.7899 4.98297 18.8936 5.75204ZM21.5824 7.06586C21.8457 7.58659 22.0771 8.12333 22.1011 8.26753C22.1729 8.62002 21.9495 9.6134 21.6622 10.2303C21.0718 11.488 19.7074 12.8098 18.4229 13.3706C18.2074 13.4587 17.0904 13.8593 15.9495 14.2438C14.8005 14.6364 13.6356 15.061 13.3564 15.1891C12.2394 15.7018 11.1303 16.7753 10.5399 17.9209C9.98138 19.0024 9.77394 19.7154 9.77394 20.5325C9.77394 20.9171 9.74202 21.2055 9.70213 21.1814C9.66223 21.1574 9.53457 20.893 9.41489 20.5966C9.23936 20.156 9.18351 19.8836 9.1516 19.2027C9.13564 18.714 9.1516 18.1773 9.20745 17.9289C9.43883 16.8635 10.3883 15.4295 11.3059 14.7806C12.016 14.2759 12.6064 13.9955 14.3537 13.3306C16.7074 12.4333 17.5053 11.9767 18.5426 10.9432C19.9069 9.58937 20.4654 8.27554 20.4654 6.39293L20.4734 5.39154L20.7926 5.75204C20.9681 5.95232 21.3191 6.53713 21.5824 7.06586ZM22.7793 11.504C22.7793 12.0888 22.5798 12.6496 22.133 13.3145C21.367 14.4681 20.4574 15.117 18.4069 15.9662C16.9707 16.567 16.0452 17.1519 15.4388 17.8328C14.984 18.3535 14.5532 19.1306 14.3697 19.7635C14.2101 20.3082 14.2021 21.4298 14.3617 22.0146C14.4255 22.2549 14.4495 22.4792 14.4096 22.5193C14.3378 22.5914 13.1649 22.7356 12.5904 22.7356H12.1755L12 22.271C11.8404 21.8784 11.8165 21.6621 11.8165 20.7328C11.8085 19.7394 11.8324 19.6033 12.0319 19.0986C12.4787 17.969 13.2207 17.0717 14.3138 16.3668C14.984 15.9342 15.1676 15.8541 17.0505 15.1651C18.6862 14.5643 19.5559 14.1477 20.266 13.643C20.7846 13.2665 22.141 11.8966 22.4601 11.4239C22.5718 11.2557 22.6835 11.1195 22.7234 11.1195C22.7553 11.1195 22.7793 11.2957 22.7793 11.504Z" fill="#0F2450"/>
</svg>
